<mxfile host="app.diagrams.net" modified="2023-10-13T11:38:18.998Z" agent="Mozilla/5.0 (Macintosh; Intel Mac OS X 10_15_7) AppleWebKit/537.36 (KHTML, like Gecko) Chrome/117.0.0.0 Safari/537.36" etag="PsBIxzLKA61JHUMIrrCv" version="21.7.5" type="device">
  <diagram name="Page-1" id="hs3FEmoFCI0DQv1t9gjm">
    <mxGraphModel dx="681" dy="425" grid="1" gridSize="10" guides="1" tooltips="1" connect="1" arrows="1" fold="1" page="1" pageScale="1" pageWidth="1400" pageHeight="850" math="0" shadow="0">
      <root>
        <mxCell id="0" />
        <mxCell id="1" parent="0" />
        <mxCell id="8s7Zt1Opb5Dttg0bfxXg-63" value="" style="whiteSpace=wrap;html=1;aspect=fixed;fillStyle=solid;" vertex="1" parent="1">
          <mxGeometry x="120" y="80" width="120" height="120" as="geometry" />
        </mxCell>
        <mxCell id="8s7Zt1Opb5Dttg0bfxXg-64" value="" style="whiteSpace=wrap;html=1;aspect=fixed;fillStyle=solid;" vertex="1" parent="1">
          <mxGeometry x="280" y="80" width="120" height="120" as="geometry" />
        </mxCell>
        <mxCell id="8s7Zt1Opb5Dttg0bfxXg-65" value="" style="whiteSpace=wrap;html=1;aspect=fixed;fillStyle=solid;" vertex="1" parent="1">
          <mxGeometry x="440" y="80" width="120" height="120" as="geometry" />
        </mxCell>
        <mxCell id="8s7Zt1Opb5Dttg0bfxXg-1" value="" style="whiteSpace=wrap;html=1;aspect=fixed;fillColor=#B3B3B3;fillStyle=hatch;" vertex="1" parent="1">
          <mxGeometry x="120" y="80" width="40" height="40" as="geometry" />
        </mxCell>
        <mxCell id="8s7Zt1Opb5Dttg0bfxXg-3" value="" style="whiteSpace=wrap;html=1;aspect=fixed;fillStyle=hatch;" vertex="1" parent="1">
          <mxGeometry x="160" y="80" width="40" height="40" as="geometry" />
        </mxCell>
        <mxCell id="8s7Zt1Opb5Dttg0bfxXg-4" value="" style="whiteSpace=wrap;html=1;aspect=fixed;" vertex="1" parent="1">
          <mxGeometry x="120" y="120" width="40" height="40" as="geometry" />
        </mxCell>
        <mxCell id="8s7Zt1Opb5Dttg0bfxXg-5" value="" style="whiteSpace=wrap;html=1;aspect=fixed;" vertex="1" parent="1">
          <mxGeometry x="160" y="120" width="40" height="40" as="geometry" />
        </mxCell>
        <mxCell id="8s7Zt1Opb5Dttg0bfxXg-6" value="" style="whiteSpace=wrap;html=1;aspect=fixed;fillColor=#B3B3B3;fillStyle=hatch;" vertex="1" parent="1">
          <mxGeometry x="120" y="160" width="40" height="40" as="geometry" />
        </mxCell>
        <mxCell id="8s7Zt1Opb5Dttg0bfxXg-7" value="" style="whiteSpace=wrap;html=1;aspect=fixed;" vertex="1" parent="1">
          <mxGeometry x="160" y="160" width="40" height="40" as="geometry" />
        </mxCell>
        <mxCell id="8s7Zt1Opb5Dttg0bfxXg-8" value="" style="whiteSpace=wrap;html=1;aspect=fixed;fillColor=#B3B3B3;fillStyle=hatch;" vertex="1" parent="1">
          <mxGeometry x="200" y="80" width="40" height="40" as="geometry" />
        </mxCell>
        <mxCell id="8s7Zt1Opb5Dttg0bfxXg-9" value="" style="whiteSpace=wrap;html=1;aspect=fixed;" vertex="1" parent="1">
          <mxGeometry x="200" y="120" width="40" height="40" as="geometry" />
        </mxCell>
        <mxCell id="8s7Zt1Opb5Dttg0bfxXg-56" value="" style="html=1;shadow=0;dashed=0;align=center;verticalAlign=middle;shape=mxgraph.arrows2.quadArrow;dy=4.74;dx=11.77;notch=24;arrowHead=6;strokeColor=#CCCCCC;" vertex="1" parent="1">
          <mxGeometry x="130" y="90" width="100" height="100" as="geometry" />
        </mxCell>
        <mxCell id="8s7Zt1Opb5Dttg0bfxXg-10" value="" style="whiteSpace=wrap;html=1;aspect=fixed;fillColor=#B3B3B3;fillStyle=hatch;" vertex="1" parent="1">
          <mxGeometry x="200" y="160" width="40" height="40" as="geometry" />
        </mxCell>
        <mxCell id="8s7Zt1Opb5Dttg0bfxXg-11" value="" style="whiteSpace=wrap;html=1;aspect=fixed;" vertex="1" parent="1">
          <mxGeometry x="280" y="80" width="40" height="40" as="geometry" />
        </mxCell>
        <mxCell id="8s7Zt1Opb5Dttg0bfxXg-12" value="" style="whiteSpace=wrap;html=1;aspect=fixed;" vertex="1" parent="1">
          <mxGeometry x="320" y="80" width="40" height="40" as="geometry" />
        </mxCell>
        <mxCell id="8s7Zt1Opb5Dttg0bfxXg-13" value="" style="whiteSpace=wrap;html=1;aspect=fixed;" vertex="1" parent="1">
          <mxGeometry x="280" y="120" width="40" height="40" as="geometry" />
        </mxCell>
        <mxCell id="8s7Zt1Opb5Dttg0bfxXg-14" value="" style="whiteSpace=wrap;html=1;aspect=fixed;" vertex="1" parent="1">
          <mxGeometry x="320" y="120" width="40" height="40" as="geometry" />
        </mxCell>
        <mxCell id="8s7Zt1Opb5Dttg0bfxXg-15" value="" style="whiteSpace=wrap;html=1;aspect=fixed;fillColor=none;" vertex="1" parent="1">
          <mxGeometry x="280" y="160" width="40" height="40" as="geometry" />
        </mxCell>
        <mxCell id="8s7Zt1Opb5Dttg0bfxXg-16" value="" style="whiteSpace=wrap;html=1;aspect=fixed;fillColor=none;" vertex="1" parent="1">
          <mxGeometry x="320" y="160" width="40" height="40" as="geometry" />
        </mxCell>
        <mxCell id="8s7Zt1Opb5Dttg0bfxXg-17" value="" style="whiteSpace=wrap;html=1;aspect=fixed;fillColor=none;" vertex="1" parent="1">
          <mxGeometry x="360" y="80" width="40" height="40" as="geometry" />
        </mxCell>
        <mxCell id="8s7Zt1Opb5Dttg0bfxXg-18" value="" style="whiteSpace=wrap;html=1;aspect=fixed;fillColor=none;" vertex="1" parent="1">
          <mxGeometry x="360" y="120" width="40" height="40" as="geometry" />
        </mxCell>
        <mxCell id="8s7Zt1Opb5Dttg0bfxXg-19" value="" style="whiteSpace=wrap;html=1;aspect=fixed;fillColor=none;" vertex="1" parent="1">
          <mxGeometry x="360" y="160" width="40" height="40" as="geometry" />
        </mxCell>
        <mxCell id="8s7Zt1Opb5Dttg0bfxXg-60" value="" style="html=1;shadow=0;dashed=0;align=center;verticalAlign=middle;shape=mxgraph.arrows2.quadArrow;dy=4.74;dx=11.77;notch=24;arrowHead=6;strokeColor=#CCCCCC;rotation=-45;" vertex="1" parent="1">
          <mxGeometry x="280" y="80" width="120" height="120" as="geometry" />
        </mxCell>
        <mxCell id="8s7Zt1Opb5Dttg0bfxXg-20" value="" style="whiteSpace=wrap;html=1;aspect=fixed;fillColor=#B3B3B3;fillStyle=hatch;" vertex="1" parent="1">
          <mxGeometry x="440" y="80" width="40" height="40" as="geometry" />
        </mxCell>
        <mxCell id="8s7Zt1Opb5Dttg0bfxXg-21" value="" style="whiteSpace=wrap;html=1;aspect=fixed;" vertex="1" parent="1">
          <mxGeometry x="480" y="80" width="40" height="40" as="geometry" />
        </mxCell>
        <mxCell id="8s7Zt1Opb5Dttg0bfxXg-59" value="" style="html=1;shadow=0;dashed=0;align=center;verticalAlign=middle;shape=mxgraph.arrows2.quadArrow;dy=4.74;dx=11.77;notch=24;arrowHead=6;strokeColor=#CCCCCC;" vertex="1" parent="1">
          <mxGeometry x="290" y="90" width="100" height="100" as="geometry" />
        </mxCell>
        <mxCell id="8s7Zt1Opb5Dttg0bfxXg-22" value="" style="whiteSpace=wrap;html=1;aspect=fixed;fillColor=#B3B3B3;fillStyle=hatch;" vertex="1" parent="1">
          <mxGeometry x="440" y="120" width="40" height="40" as="geometry" />
        </mxCell>
        <mxCell id="8s7Zt1Opb5Dttg0bfxXg-23" value="" style="whiteSpace=wrap;html=1;aspect=fixed;" vertex="1" parent="1">
          <mxGeometry x="480" y="120" width="40" height="40" as="geometry" />
        </mxCell>
        <mxCell id="8s7Zt1Opb5Dttg0bfxXg-24" value="" style="whiteSpace=wrap;html=1;aspect=fixed;fillColor=#B3B3B3;fillStyle=hatch;" vertex="1" parent="1">
          <mxGeometry x="440" y="160" width="40" height="40" as="geometry" />
        </mxCell>
        <mxCell id="8s7Zt1Opb5Dttg0bfxXg-25" value="" style="whiteSpace=wrap;html=1;aspect=fixed;fillColor=#B3B3B3;fillStyle=hatch;" vertex="1" parent="1">
          <mxGeometry x="480" y="160" width="40" height="40" as="geometry" />
        </mxCell>
        <mxCell id="8s7Zt1Opb5Dttg0bfxXg-26" value="" style="whiteSpace=wrap;html=1;aspect=fixed;fillColor=#B3B3B3;fillStyle=hatch;" vertex="1" parent="1">
          <mxGeometry x="520" y="80" width="40" height="40" as="geometry" />
        </mxCell>
        <mxCell id="8s7Zt1Opb5Dttg0bfxXg-27" value="" style="whiteSpace=wrap;html=1;aspect=fixed;fillColor=#B3B3B3;fillStyle=hatch;" vertex="1" parent="1">
          <mxGeometry x="520" y="120" width="40" height="40" as="geometry" />
        </mxCell>
        <mxCell id="8s7Zt1Opb5Dttg0bfxXg-28" value="" style="whiteSpace=wrap;html=1;aspect=fixed;fillColor=#B3B3B3;fillStyle=hatch;" vertex="1" parent="1">
          <mxGeometry x="520" y="160" width="40" height="40" as="geometry" />
        </mxCell>
        <mxCell id="8s7Zt1Opb5Dttg0bfxXg-29" value="" style="shape=image;html=1;verticalAlign=top;verticalLabelPosition=bottom;labelBackgroundColor=#ffffff;imageAspect=0;aspect=fixed;image=https://cdn0.iconfinder.com/data/icons/phosphor-fill-vol-4/256/robot-fill-128.png" vertex="1" parent="1">
          <mxGeometry x="168" y="128" width="24" height="24" as="geometry" />
        </mxCell>
        <mxCell id="8s7Zt1Opb5Dttg0bfxXg-33" value="" style="endArrow=none;html=1;rounded=0;entryX=1;entryY=0.5;entryDx=0;entryDy=0;dashed=1;strokeWidth=2;" edge="1" parent="1">
          <mxGeometry width="50" height="50" relative="1" as="geometry">
            <mxPoint x="520" y="99.75999999999999" as="sourcePoint" />
            <mxPoint x="560" y="99.75999999999999" as="targetPoint" />
          </mxGeometry>
        </mxCell>
        <mxCell id="8s7Zt1Opb5Dttg0bfxXg-34" value="" style="endArrow=none;html=1;rounded=0;entryX=1;entryY=0.5;entryDx=0;entryDy=0;dashed=1;strokeWidth=2;" edge="1" parent="1">
          <mxGeometry width="50" height="50" relative="1" as="geometry">
            <mxPoint x="440" y="179.76" as="sourcePoint" />
            <mxPoint x="480" y="179.76" as="targetPoint" />
          </mxGeometry>
        </mxCell>
        <mxCell id="8s7Zt1Opb5Dttg0bfxXg-38" value="" style="curved=1;endArrow=none;html=1;rounded=0;exitX=0;exitY=0.5;exitDx=0;exitDy=0;entryX=0.5;entryY=0;entryDx=0;entryDy=0;endFill=0;dashed=1;strokeWidth=2;" edge="1" parent="1" source="8s7Zt1Opb5Dttg0bfxXg-25" target="8s7Zt1Opb5Dttg0bfxXg-25">
          <mxGeometry width="50" height="50" relative="1" as="geometry">
            <mxPoint x="500" y="240" as="sourcePoint" />
            <mxPoint x="550" y="190" as="targetPoint" />
            <Array as="points">
              <mxPoint x="500" y="180" />
            </Array>
          </mxGeometry>
        </mxCell>
        <mxCell id="8s7Zt1Opb5Dttg0bfxXg-62" value="" style="html=1;shadow=0;dashed=0;align=center;verticalAlign=middle;shape=mxgraph.arrows2.arrow;dy=0.58;dx=11.15;flipH=1;notch=0;strokeColor=#CCCCCC;rotation=90;strokeWidth=0.9;" vertex="1" parent="1">
          <mxGeometry x="471.25" y="107.75" width="57.5" height="21" as="geometry" />
        </mxCell>
        <mxCell id="8s7Zt1Opb5Dttg0bfxXg-39" value="" style="curved=1;endArrow=none;html=1;rounded=0;exitX=0;exitY=0.5;exitDx=0;exitDy=0;entryX=0.5;entryY=0;entryDx=0;entryDy=0;endFill=0;dashed=1;strokeWidth=2;" edge="1" parent="1">
          <mxGeometry width="50" height="50" relative="1" as="geometry">
            <mxPoint x="520.0000000000002" y="100" as="sourcePoint" />
            <mxPoint x="500.0000000000002" y="120" as="targetPoint" />
            <Array as="points">
              <mxPoint x="500.0000000000002" y="100" />
            </Array>
          </mxGeometry>
        </mxCell>
        <mxCell id="8s7Zt1Opb5Dttg0bfxXg-42" value="" style="shape=image;html=1;verticalAlign=top;verticalLabelPosition=bottom;labelBackgroundColor=#ffffff;imageAspect=0;aspect=fixed;image=https://cdn0.iconfinder.com/data/icons/phosphor-fill-vol-4/256/robot-fill-128.png" vertex="1" parent="1">
          <mxGeometry x="328" y="128" width="24" height="24" as="geometry" />
        </mxCell>
        <mxCell id="8s7Zt1Opb5Dttg0bfxXg-50" value="" style="endArrow=none;html=1;rounded=0;entryX=0.5;entryY=0;entryDx=0;entryDy=0;dashed=1;strokeWidth=2;exitX=0.5;exitY=0;exitDx=0;exitDy=0;" edge="1" parent="1" source="8s7Zt1Opb5Dttg0bfxXg-23" target="8s7Zt1Opb5Dttg0bfxXg-25">
          <mxGeometry width="50" height="50" relative="1" as="geometry">
            <mxPoint x="450" y="189.76" as="sourcePoint" />
            <mxPoint x="490" y="189.76" as="targetPoint" />
          </mxGeometry>
        </mxCell>
        <mxCell id="8s7Zt1Opb5Dttg0bfxXg-53" value="&lt;font style=&quot;font-size: 12px;&quot;&gt;Eight-connected grid&lt;/font&gt;" style="text;html=1;strokeColor=none;fillColor=none;align=center;verticalAlign=middle;whiteSpace=wrap;rounded=0;fontFamily=Computer Modern;fontSource=https%3A%2F%2Ffonts.googleapis.com%2Fcss%3Ffamily%3DComputer%2BModern;fontSize=12;" vertex="1" parent="1">
          <mxGeometry x="280" y="30" width="120" height="40" as="geometry" />
        </mxCell>
        <mxCell id="8s7Zt1Opb5Dttg0bfxXg-54" value="&lt;font data-font-src=&quot;https://fonts.googleapis.com/css?family=Computer+Modern&quot; face=&quot;Computer Modern&quot; style=&quot;font-size: 12px;&quot;&gt;Four-connected grid&lt;/font&gt;" style="text;html=1;strokeColor=none;fillColor=none;align=center;verticalAlign=middle;whiteSpace=wrap;rounded=0;" vertex="1" parent="1">
          <mxGeometry x="120" y="30" width="120" height="40" as="geometry" />
        </mxCell>
        <mxCell id="8s7Zt1Opb5Dttg0bfxXg-55" value="&lt;font style=&quot;font-size: 12px;&quot;&gt;Flatland grid&lt;/font&gt;" style="text;html=1;strokeColor=none;fillColor=none;align=center;verticalAlign=middle;whiteSpace=wrap;rounded=0;fontFamily=Computer Modern;fontSource=https%3A%2F%2Ffonts.googleapis.com%2Fcss%3Ffamily%3DComputer%2BModern;fontSize=12;" vertex="1" parent="1">
          <mxGeometry x="440" y="30" width="120" height="40" as="geometry" />
        </mxCell>
        <mxCell id="8s7Zt1Opb5Dttg0bfxXg-45" value="" style="triangle;whiteSpace=wrap;html=1;rotation=-90;fillColor=#000000;" vertex="1" parent="1">
          <mxGeometry x="492.5" y="131.25" width="15" height="17.5" as="geometry" />
        </mxCell>
      </root>
    </mxGraphModel>
  </diagram>
</mxfile>
